# xmcd
#
# Track frame offsets: 
#        150
#        13367
#        33209
#        46582
#        67151
#        82862
#        96224
#        113538
#        132415
#        148516
#        166210
#        182598
#        195123
#        209867
#        226408
#        249785
#        266094
#        280832
#        295351
#
# Disc length: 4162 seconds
#
# Revision: 1
# Processed by: cddbd v1.5.2PL0 Copyright (c) Steve Scherf et al.
# Submitted via: ExactAudioCopy v0.99pb4
#
DISCID=0a104013
DTITLE=Various Artist - KGSR Broadcasts Vol. 16 Disc 2
DYEAR=2009
DGENRE=Country
TTITLE0=Buddy Miller - Wide River To Cross
TTITLE1=James McMurty - Just Us Kids
TTITLE2=Sam Baker and Gurf Morlix - Slots
TTITLE3=Landon Pigg - Falling In Love At A Coffee Shop
TTITLE4=Feist - I Feel It All
TTITLE5=Shelby Lynne - Pretend
TTITLE6=Tift Merritt - Broken
TTITLE7=John Hiatt - Love You Again
TTITLE8=The Band of Heathens - This I Know
TTITLE9=Sharon Jones and The Dap Kings - 100 Days, 100 Nights
TTITLE10=Cowboy Junkies - I Don't Get It
TTITLE11=Indigo Girls - Little Perennials
TTITLE12=Asleep At The Wheel - (Get Your Kicks On) Route 66
TTITLE13=Aimee Mann - Freeway
TTITLE14=Alejandro Escovedo - Sister Lost Soul
TTITLE15=Carolyn Wonderland - Miss Understood
TTITLE16=James Hunter - Don't Do Me No Favours
TTITLE17=Bob Schneider - When The Sun Breaks Down On The Moon
TTITLE18=The Hold Steady - Sequestered In Memphis
EXTD=
EXTT0=
EXTT1=
EXTT2=
EXTT3=
EXTT4=
EXTT5=
EXTT6=
EXTT7=
EXTT8=
EXTT9=
EXTT10=
EXTT11=
EXTT12=
EXTT13=
EXTT14=
EXTT15=
EXTT16=
EXTT17=
EXTT18=
PLAYORDER=
